<svg xmlns="http://www.w3.org/2000/svg" xmlns:xlink="http://www.w3.org/1999/xlink" width="54.613" height="42.998" viewBox="0 0 54.613 42.998">
  <defs>
    <linearGradient id="linear-gradient" x1="0.518" y1="0.554" x2="0.706" y2="0.086" gradientUnits="objectBoundingBox">
      <stop offset="0" stop-color="#56006e" stop-opacity="0"/>
      <stop offset="1" stop-color="#56006e"/>
    </linearGradient>
  </defs>
  <g id="Сгруппировать_1" data-name="Сгруппировать 1" transform="translate(-67.158 -336.527)">
    <path id="Контур_1" data-name="Контур 1" d="M170.058,379.518H157.224l12.748-25.827s5.317-.97,6.843,3.82l-6.161,11.362a10.73,10.73,0,0,0,10.354-10.764,10.962,10.962,0,0,0-10.95-10.95H155.912v32.358H145.281V336.527h24.777a21.605,21.605,0,0,1,21.581,21.581,21.182,21.182,0,0,1-6.348,15.2A21.556,21.556,0,0,1,170.058,379.518Z" transform="translate(-69.868)" fill="#8e00af"/>
    <path id="Контур_2" data-name="Контур 2" d="M308.947,513.42l6.135-11.313c-1.526-4.79-6.843-3.82-6.843-3.82l-8.356,16.929,6.255.426Z" transform="translate(-208.135 -144.596)" fill="url(#linear-gradient)"/>
    <path id="Контур_3" data-name="Контур 3" d="M106.945,476.191s-1.279-3.645-6.759-1.3c-6.936,2.966-19.649,23.3-19.649,23.3l-13.38-19.816,6.691-5.032,6.672,10.871s8.628-12.541,15.829-14.475c5.739-1.541,8.37.571,9.576,2.781A8.9,8.9,0,0,1,106.945,476.191Z" transform="translate(0 -118.659)" fill="#7bb300"/>
  </g>
</svg>
